<mxfile host="app.diagrams.net" modified="2024-01-23T11:44:25.206Z" agent="Mozilla/5.0 (Windows NT 10.0; Win64; x64) AppleWebKit/537.36 (KHTML, like Gecko) Chrome/120.0.0.0 Safari/537.36" etag="Dt0qn722O4jChmkeRMJN" version="22.1.17" type="device">
  <diagram name="Page-1" id="e7e014a7-5840-1c2e-5031-d8a46d1fe8dd">
    <mxGraphModel dx="1050" dy="557" grid="1" gridSize="10" guides="1" tooltips="1" connect="1" arrows="1" fold="1" page="1" pageScale="1" pageWidth="1169" pageHeight="826" background="none" math="0" shadow="0">
      <root>
        <mxCell id="0" />
        <mxCell id="1" parent="0" />
        <mxCell id="2" value="Dosen Peneliti" style="swimlane;whiteSpace=wrap;startSize=23;" parent="1" vertex="1">
          <mxGeometry x="164.5" y="128" width="280" height="912" as="geometry" />
        </mxCell>
        <mxCell id="5" value="" style="ellipse;shape=startState;fillColor=#000000;strokeColor=#ff0000;" parent="2" vertex="1">
          <mxGeometry x="100" y="40" width="30" height="30" as="geometry" />
        </mxCell>
        <mxCell id="6" value="" style="edgeStyle=elbowEdgeStyle;elbow=horizontal;verticalAlign=bottom;endArrow=open;endSize=8;strokeColor=#FF0000;endFill=1;rounded=0" parent="2" source="5" target="7" edge="1">
          <mxGeometry x="100" y="40" as="geometry">
            <mxPoint x="115" y="110" as="targetPoint" />
          </mxGeometry>
        </mxCell>
        <mxCell id="7" value="Melakukan login" style="" parent="2" vertex="1">
          <mxGeometry x="60" y="110" width="110" height="50" as="geometry" />
        </mxCell>
        <mxCell id="8" value="Memilih Daftar &#xa;Penelitian(Penelitian)&#xa;kemudian melakukan &#xa;filter" style="" parent="2" vertex="1">
          <mxGeometry x="40" y="342" width="130" height="68" as="geometry" />
        </mxCell>
        <mxCell id="38" value="" style="ellipse;shape=endState;fillColor=#000000;strokeColor=#ff0000" parent="2" vertex="1">
          <mxGeometry x="100" y="862" width="30" height="30" as="geometry" />
        </mxCell>
        <mxCell id="oYpXWh9MYxcOKH4wnSdL-53" value="memilih data &#xa;penelitian, kemudian&#xa;upload laporan &#xa;kemajuan" style="" parent="2" vertex="1">
          <mxGeometry x="55" y="482" width="120" height="68" as="geometry" />
        </mxCell>
        <mxCell id="oYpXWh9MYxcOKH4wnSdL-63" value="Revisi laporan &#xa;kemajuan" style="" parent="2" vertex="1">
          <mxGeometry x="55" y="622" width="120" height="68" as="geometry" />
        </mxCell>
        <mxCell id="qQRWkgLpoGCScBRGs1NW-38" style="edgeStyle=orthogonalEdgeStyle;rounded=0;orthogonalLoop=1;jettySize=auto;html=1;entryX=0.5;entryY=0;entryDx=0;entryDy=0;" edge="1" parent="2" source="oYpXWh9MYxcOKH4wnSdL-76" target="38">
          <mxGeometry relative="1" as="geometry" />
        </mxCell>
        <mxCell id="oYpXWh9MYxcOKH4wnSdL-76" value="mendapat notifikasi&#xa;hasil review" style="" parent="2" vertex="1">
          <mxGeometry x="55" y="752" width="120" height="68" as="geometry" />
        </mxCell>
        <mxCell id="3" value="Sistem" style="swimlane;whiteSpace=wrap" parent="1" vertex="1">
          <mxGeometry x="445" y="128" width="280" height="912" as="geometry" />
        </mxCell>
        <mxCell id="19" value="" style="endArrow=open;strokeColor=#FF0000;endFill=1;rounded=0" parent="3" edge="1">
          <mxGeometry relative="1" as="geometry">
            <mxPoint x="75" y="270" as="sourcePoint" />
          </mxGeometry>
        </mxCell>
        <mxCell id="24" value="" style="endArrow=open;strokeColor=#FF0000;endFill=1;rounded=0" parent="3" edge="1">
          <mxGeometry relative="1" as="geometry">
            <mxPoint x="130" y="245" as="sourcePoint" />
          </mxGeometry>
        </mxCell>
        <mxCell id="oYpXWh9MYxcOKH4wnSdL-44" style="edgeStyle=orthogonalEdgeStyle;rounded=0;orthogonalLoop=1;jettySize=auto;html=1;" parent="3" source="oYpXWh9MYxcOKH4wnSdL-41" target="oYpXWh9MYxcOKH4wnSdL-42" edge="1">
          <mxGeometry relative="1" as="geometry" />
        </mxCell>
        <mxCell id="oYpXWh9MYxcOKH4wnSdL-41" value="Validasi" style="" parent="3" vertex="1">
          <mxGeometry x="85.5" y="112" width="110" height="48" as="geometry" />
        </mxCell>
        <mxCell id="oYpXWh9MYxcOKH4wnSdL-48" style="edgeStyle=orthogonalEdgeStyle;rounded=0;orthogonalLoop=1;jettySize=auto;html=1;" parent="3" source="oYpXWh9MYxcOKH4wnSdL-42" target="oYpXWh9MYxcOKH4wnSdL-47" edge="1">
          <mxGeometry relative="1" as="geometry" />
        </mxCell>
        <mxCell id="oYpXWh9MYxcOKH4wnSdL-49" value="Ya" style="edgeLabel;html=1;align=center;verticalAlign=middle;resizable=0;points=[];" parent="oYpXWh9MYxcOKH4wnSdL-48" vertex="1" connectable="0">
          <mxGeometry x="-0.1861" y="1" relative="1" as="geometry">
            <mxPoint as="offset" />
          </mxGeometry>
        </mxCell>
        <mxCell id="oYpXWh9MYxcOKH4wnSdL-42" value="Sesuai?" style="rhombus;whiteSpace=wrap;html=1;" parent="3" vertex="1">
          <mxGeometry x="100.5" y="205" width="80" height="80" as="geometry" />
        </mxCell>
        <mxCell id="oYpXWh9MYxcOKH4wnSdL-50" style="edgeStyle=orthogonalEdgeStyle;rounded=0;orthogonalLoop=1;jettySize=auto;html=1;" parent="3" source="oYpXWh9MYxcOKH4wnSdL-47" edge="1">
          <mxGeometry relative="1" as="geometry">
            <mxPoint x="-105" y="366" as="targetPoint" />
          </mxGeometry>
        </mxCell>
        <mxCell id="oYpXWh9MYxcOKH4wnSdL-47" value="Menampilkan&#xa;halaman&#xa;utama" style="" parent="3" vertex="1">
          <mxGeometry x="85" y="342" width="110" height="48" as="geometry" />
        </mxCell>
        <mxCell id="oYpXWh9MYxcOKH4wnSdL-51" value="Menerima filter dan &#xa;menampilkan data&#xa;penelitian sesuai filter" style="" parent="3" vertex="1">
          <mxGeometry x="70" y="412" width="130.5" height="68" as="geometry" />
        </mxCell>
        <mxCell id="oYpXWh9MYxcOKH4wnSdL-58" style="edgeStyle=orthogonalEdgeStyle;rounded=0;orthogonalLoop=1;jettySize=auto;html=1;entryX=0.5;entryY=0;entryDx=0;entryDy=0;" parent="3" source="oYpXWh9MYxcOKH4wnSdL-55" target="oYpXWh9MYxcOKH4wnSdL-57" edge="1">
          <mxGeometry relative="1" as="geometry" />
        </mxCell>
        <mxCell id="oYpXWh9MYxcOKH4wnSdL-55" value="menunggu hasil review&#xa;dari&#xa;dosen reviewer" style="" parent="3" vertex="1">
          <mxGeometry x="70" y="522" width="140" height="68" as="geometry" />
        </mxCell>
        <mxCell id="oYpXWh9MYxcOKH4wnSdL-60" style="edgeStyle=orthogonalEdgeStyle;rounded=0;orthogonalLoop=1;jettySize=auto;html=1;" parent="3" source="oYpXWh9MYxcOKH4wnSdL-57" target="oYpXWh9MYxcOKH4wnSdL-59" edge="1">
          <mxGeometry relative="1" as="geometry" />
        </mxCell>
        <mxCell id="oYpXWh9MYxcOKH4wnSdL-61" value="Ya" style="edgeLabel;html=1;align=center;verticalAlign=middle;resizable=0;points=[];" parent="oYpXWh9MYxcOKH4wnSdL-60" vertex="1" connectable="0">
          <mxGeometry x="-0.5333" relative="1" as="geometry">
            <mxPoint as="offset" />
          </mxGeometry>
        </mxCell>
        <mxCell id="oYpXWh9MYxcOKH4wnSdL-64" style="edgeStyle=orthogonalEdgeStyle;rounded=0;orthogonalLoop=1;jettySize=auto;html=1;" parent="3" source="oYpXWh9MYxcOKH4wnSdL-57" edge="1">
          <mxGeometry relative="1" as="geometry">
            <mxPoint x="-105" y="658" as="targetPoint" />
          </mxGeometry>
        </mxCell>
        <mxCell id="oYpXWh9MYxcOKH4wnSdL-65" value="Perlu revisi" style="edgeLabel;html=1;align=center;verticalAlign=middle;resizable=0;points=[];" parent="oYpXWh9MYxcOKH4wnSdL-64" vertex="1" connectable="0">
          <mxGeometry x="-0.4189" y="3" relative="1" as="geometry">
            <mxPoint y="-3" as="offset" />
          </mxGeometry>
        </mxCell>
        <mxCell id="oYpXWh9MYxcOKH4wnSdL-57" value="Diterima?" style="rhombus;whiteSpace=wrap;html=1;" parent="3" vertex="1">
          <mxGeometry x="100" y="618" width="80" height="80" as="geometry" />
        </mxCell>
        <mxCell id="oYpXWh9MYxcOKH4wnSdL-77" style="edgeStyle=orthogonalEdgeStyle;rounded=0;orthogonalLoop=1;jettySize=auto;html=1;" parent="3" source="oYpXWh9MYxcOKH4wnSdL-59" edge="1">
          <mxGeometry relative="1" as="geometry">
            <mxPoint x="-105" y="786" as="targetPoint" />
          </mxGeometry>
        </mxCell>
        <mxCell id="oYpXWh9MYxcOKH4wnSdL-59" value="mengirim notifikasi&#xa;hasil review" style="" parent="3" vertex="1">
          <mxGeometry x="80" y="752" width="120" height="68" as="geometry" />
        </mxCell>
        <mxCell id="oYpXWh9MYxcOKH4wnSdL-43" style="edgeStyle=orthogonalEdgeStyle;rounded=0;orthogonalLoop=1;jettySize=auto;html=1;" parent="1" source="7" target="oYpXWh9MYxcOKH4wnSdL-41" edge="1">
          <mxGeometry relative="1" as="geometry" />
        </mxCell>
        <mxCell id="oYpXWh9MYxcOKH4wnSdL-45" style="rounded=0;orthogonalLoop=1;jettySize=auto;html=1;entryX=1;entryY=0.75;entryDx=0;entryDy=0;" parent="1" source="oYpXWh9MYxcOKH4wnSdL-42" target="7" edge="1">
          <mxGeometry relative="1" as="geometry" />
        </mxCell>
        <mxCell id="oYpXWh9MYxcOKH4wnSdL-46" value="Tidak" style="edgeLabel;html=1;align=center;verticalAlign=middle;resizable=0;points=[];" parent="oYpXWh9MYxcOKH4wnSdL-45" vertex="1" connectable="0">
          <mxGeometry x="-0.2093" relative="1" as="geometry">
            <mxPoint y="1" as="offset" />
          </mxGeometry>
        </mxCell>
        <mxCell id="oYpXWh9MYxcOKH4wnSdL-52" style="rounded=0;orthogonalLoop=1;jettySize=auto;html=1;entryX=0;entryY=0.5;entryDx=0;entryDy=0;" parent="1" source="8" target="oYpXWh9MYxcOKH4wnSdL-51" edge="1">
          <mxGeometry relative="1" as="geometry" />
        </mxCell>
        <mxCell id="oYpXWh9MYxcOKH4wnSdL-54" style="rounded=0;orthogonalLoop=1;jettySize=auto;html=1;" parent="1" source="oYpXWh9MYxcOKH4wnSdL-51" target="oYpXWh9MYxcOKH4wnSdL-53" edge="1">
          <mxGeometry relative="1" as="geometry" />
        </mxCell>
        <mxCell id="oYpXWh9MYxcOKH4wnSdL-56" style="rounded=0;orthogonalLoop=1;jettySize=auto;html=1;entryX=0;entryY=0.75;entryDx=0;entryDy=0;" parent="1" source="oYpXWh9MYxcOKH4wnSdL-53" target="oYpXWh9MYxcOKH4wnSdL-55" edge="1">
          <mxGeometry relative="1" as="geometry" />
        </mxCell>
        <mxCell id="oYpXWh9MYxcOKH4wnSdL-67" style="rounded=0;orthogonalLoop=1;jettySize=auto;html=1;entryX=0;entryY=0.75;entryDx=0;entryDy=0;" parent="1" source="oYpXWh9MYxcOKH4wnSdL-63" target="oYpXWh9MYxcOKH4wnSdL-55" edge="1">
          <mxGeometry relative="1" as="geometry" />
        </mxCell>
      </root>
    </mxGraphModel>
  </diagram>
</mxfile>
